<svg width="400" height="200" viewBox="0 0 400 200" fill="none" xmlns="http://www.w3.org/2000/svg">
<rect width="400" height="200" fill="#D9D9D9"/>
<path d="M116.142 82.598C114.854 82.598 114.21 81.862 114.21 80.39V54.4C114.21 52.8973 114.823 52.146 116.05 52.146C117.399 52.146 118.074 52.8973 118.074 54.4V64.29H134.082V54.4C134.082 52.8973 134.726 52.146 136.014 52.146C137.302 52.146 137.946 52.8973 137.946 54.4V80.39C137.946 81.862 137.302 82.598 136.014 82.598C134.726 82.598 134.082 81.862 134.082 80.39V68.154H118.074V80.39C118.074 81.862 117.43 82.598 116.142 82.598ZM163.884 82.598C163.501 82.598 163.187 82.483 162.941 82.253C162.696 82.0383 162.512 81.5707 162.389 80.85C162.282 80.1293 162.228 79.0253 162.228 77.538L162.734 78.734C161.768 80.068 160.557 80.9957 159.1 81.517C157.659 82.023 155.957 82.276 153.994 82.276H149.716C148.045 82.276 146.68 81.724 145.622 80.62C144.58 79.5007 144.058 77.814 144.058 75.56C144.058 74.1493 144.288 72.961 144.748 71.995C145.208 71.0137 145.921 70.224 146.887 69.626C147.853 69.0127 149.088 68.568 150.59 68.292C152.093 68.016 153.887 67.878 155.972 67.878H163.746L161.998 69.442V66.038C161.998 65.3633 161.883 64.9187 161.653 64.704C161.439 64.4893 160.956 64.382 160.204 64.382H153.718C152.17 64.382 150.981 64.4203 150.153 64.497C149.341 64.5737 148.773 64.727 148.451 64.957C148.129 65.1717 147.953 65.486 147.922 65.9C147.861 66.6973 147.715 67.2877 147.485 67.671C147.255 68.0543 146.757 68.246 145.99 68.246C144.702 68.246 144.058 67.418 144.058 65.762C144.058 63.9373 144.817 62.611 146.335 61.783C147.853 60.9397 150.207 60.518 153.396 60.518H160.526C162.489 60.518 163.869 60.9857 164.666 61.921C165.464 62.8563 165.862 64.474 165.862 66.774V80.39C165.862 81.862 165.203 82.598 163.884 82.598ZM149.854 78.596H153.994C156.892 78.596 158.947 78.0133 160.158 76.848C161.385 75.6673 161.998 73.812 161.998 71.282L162.274 71.558H155.972C153.948 71.558 152.346 71.6577 151.165 71.857C150 72.041 149.164 72.409 148.658 72.961C148.168 73.513 147.922 74.3333 147.922 75.422C147.922 76.4033 148.091 77.1777 148.428 77.745C148.781 78.3123 149.256 78.596 149.854 78.596ZM192.715 82.598C191.396 82.598 190.737 81.862 190.737 80.39V74.824C188.866 76.1733 186.459 76.848 183.515 76.848H181.905C179.221 76.848 177.067 76.572 175.442 76.02C173.832 75.4527 172.666 74.5403 171.946 73.283C171.225 72.0103 170.865 70.3313 170.865 68.246V62.404C170.865 60.932 171.509 60.196 172.797 60.196C174.085 60.196 174.729 60.932 174.729 62.404V68.108C174.729 69.4727 174.913 70.5077 175.281 71.213C175.649 71.903 176.346 72.3707 177.374 72.616C178.401 72.8613 179.911 72.984 181.905 72.984H183.515C185.937 72.984 187.747 72.386 188.943 71.19C190.139 69.994 190.737 68.1847 190.737 65.762V62.404C190.737 60.932 191.381 60.196 192.669 60.196C193.957 60.196 194.601 60.932 194.601 62.404V80.344C194.601 81.8467 193.972 82.598 192.715 82.598ZM202.877 82.598C201.589 82.598 200.945 81.862 200.945 80.39V62.45C200.945 60.9473 201.558 60.196 202.785 60.196C204.134 60.196 204.809 60.9473 204.809 62.45V68.844H220.357V62.45C220.357 60.9473 221.001 60.196 222.289 60.196C223.577 60.196 224.221 60.9473 224.221 62.45V80.39C224.221 81.862 223.577 82.598 222.289 82.598C221.001 82.598 220.357 81.862 220.357 80.39V72.708H204.809V80.39C204.809 81.862 204.165 82.598 202.877 82.598ZM246.326 58.264C245.529 58.264 244.823 58.0033 244.21 57.482C243.597 56.9453 243.29 56.332 243.29 55.642C243.29 54.9673 243.604 54.3617 244.233 53.825C244.862 53.2883 245.575 53.02 246.372 53.02C247.169 53.02 247.882 53.2883 248.511 53.825C249.14 54.3617 249.454 54.9673 249.454 55.642C249.454 56.3167 249.132 56.9223 248.488 57.459C247.859 57.9957 247.139 58.264 246.326 58.264ZM238.506 58.264C237.709 58.264 237.003 58.0033 236.39 57.482C235.777 56.9453 235.47 56.332 235.47 55.642C235.47 54.9673 235.784 54.3617 236.413 53.825C237.042 53.2883 237.755 53.02 238.552 53.02C239.349 53.02 240.062 53.2883 240.691 53.825C241.32 54.3617 241.634 54.9673 241.634 55.642C241.634 56.3167 241.312 56.9223 240.668 57.459C240.039 57.9957 239.319 58.264 238.506 58.264ZM241.818 82.276C238.874 82.276 236.528 82.0153 234.78 81.494C233.047 80.9573 231.798 80.0757 231.031 78.849C230.28 77.607 229.904 75.928 229.904 73.812V68.982C229.904 66.866 230.28 65.1947 231.031 63.968C231.798 62.726 233.047 61.8443 234.78 61.323C236.528 60.7863 238.874 60.518 241.818 60.518H243.152C246.096 60.518 248.434 60.7863 250.167 61.323C251.9 61.8597 253.142 62.749 253.893 63.991C254.644 65.2177 255.02 66.8813 255.02 68.982V71.466H233.768V73.674C233.768 75.0233 233.952 76.043 234.32 76.733C234.703 77.4077 235.47 77.86 236.62 78.09C237.77 78.3047 239.503 78.412 241.818 78.412H248.902C249.623 78.412 250.098 78.2817 250.328 78.021C250.573 77.7603 250.696 77.2467 250.696 76.48C250.696 75.7133 250.865 75.1153 251.202 74.686C251.555 74.2567 252.038 74.042 252.651 74.042C253.28 74.0573 253.755 74.295 254.077 74.755C254.399 75.1997 254.56 75.836 254.56 76.664C254.56 77.9367 254.368 78.9947 253.985 79.838C253.602 80.666 253.011 81.2793 252.214 81.678C251.432 82.0767 250.435 82.276 249.224 82.276H241.818ZM233.791 67.602H251.133C250.964 66.2527 250.42 65.394 249.5 65.026C248.948 64.8113 248.128 64.6503 247.039 64.543C245.966 64.4357 244.67 64.382 243.152 64.382H241.818C240.162 64.382 238.79 64.4433 237.701 64.566C236.628 64.6733 235.838 64.842 235.332 65.072C234.412 65.4553 233.898 66.2987 233.791 67.602ZM262.443 82.598C261.155 82.598 260.511 81.862 260.511 80.39V62.45C260.511 60.9473 261.124 60.196 262.351 60.196C263.102 60.196 263.762 60.587 264.329 61.369L272.839 73.283L281.395 61.369C281.947 60.587 282.591 60.196 283.327 60.196C284.584 60.196 285.213 60.9473 285.213 62.45V80.39C285.213 81.862 284.569 82.598 283.281 82.598C281.993 82.598 281.349 81.816 281.349 80.252V66.866L274.334 76.848C274.027 77.2773 273.56 77.492 272.931 77.492C272.64 77.492 272.348 77.446 272.057 77.354C271.781 77.262 271.559 77.0933 271.39 76.848L264.375 66.866V80.252C264.375 81.816 263.731 82.598 262.443 82.598ZM58.3801 136.598C56.9694 136.598 56.2641 135.908 56.2641 134.528V118.382H49.6401C48.1374 118.382 47.3861 117.738 47.3861 116.45C47.3861 115.162 48.1374 114.518 49.6401 114.518H67.1661C68.6688 114.518 69.4201 115.162 69.4201 116.45C69.4201 117.738 68.6688 118.382 67.1661 118.382H60.5881V134.528C60.5881 135.157 60.3888 135.655 59.9901 136.023C59.5914 136.406 59.0548 136.598 58.3801 136.598ZM75.0278 144.648C73.7704 144.648 73.1418 143.866 73.1418 142.302V116.404C73.1418 114.932 73.8011 114.196 75.1198 114.196C75.8098 114.196 76.2851 114.411 76.5458 114.84C76.8218 115.269 76.9598 116.005 76.9598 117.048V118.428L76.2698 117.508C77.2358 116.45 78.4548 115.691 79.9268 115.231C81.4141 114.756 83.1238 114.518 85.0558 114.518H86.3898C89.3338 114.518 91.6721 114.786 93.4048 115.323C95.1374 115.86 96.3794 116.749 97.1308 117.991C97.8821 119.218 98.2578 120.881 98.2578 122.982V127.812C98.2578 129.913 97.8821 131.584 97.1308 132.826C96.3794 134.053 95.1451 134.934 93.4278 135.471C91.7258 136.008 89.4258 136.276 86.5278 136.276H77.0058V142.302C77.0058 143.866 76.3464 144.648 75.0278 144.648ZM77.0058 132.412H86.5278C88.7971 132.412 90.4914 132.305 91.6108 132.09C92.7301 131.86 93.4738 131.408 93.8418 130.733C94.2098 130.043 94.3938 129.023 94.3938 127.674V123.12C94.3938 121.755 94.2021 120.736 93.8188 120.061C93.4508 119.386 92.6918 118.942 91.5418 118.727C90.4071 118.497 88.6898 118.382 86.3898 118.382H85.0558C82.2804 118.382 80.2411 118.949 78.9378 120.084C77.6498 121.203 77.0058 122.951 77.0058 125.328V132.412ZM115.228 136.276C112.284 136.276 109.938 136.015 108.19 135.494C106.458 134.957 105.208 134.076 104.441 132.849C103.69 131.607 103.314 129.928 103.314 127.812V122.982C103.314 120.866 103.69 119.195 104.441 117.968C105.208 116.726 106.458 115.844 108.19 115.323C109.938 114.786 112.284 114.518 115.228 114.518H116.562C119.506 114.518 121.845 114.786 123.577 115.323C125.31 115.86 126.552 116.749 127.303 117.991C128.055 119.218 128.43 120.881 128.43 122.982V125.466H107.178V127.674C107.178 129.023 107.362 130.043 107.73 130.733C108.114 131.408 108.88 131.86 110.03 132.09C111.18 132.305 112.913 132.412 115.228 132.412H122.312C123.033 132.412 123.508 132.282 123.738 132.021C123.984 131.76 124.106 131.247 124.106 130.48C124.106 129.713 124.275 129.115 124.612 128.686C124.965 128.257 125.448 128.042 126.061 128.042C126.69 128.057 127.165 128.295 127.487 128.755C127.809 129.2 127.97 129.836 127.97 130.664C127.97 131.937 127.779 132.995 127.395 133.838C127.012 134.666 126.422 135.279 125.624 135.678C124.842 136.077 123.846 136.276 122.634 136.276H115.228ZM107.201 121.602H124.543C124.375 120.253 123.83 119.394 122.91 119.026C122.358 118.811 121.538 118.65 120.449 118.543C119.376 118.436 118.08 118.382 116.562 118.382H115.228C113.572 118.382 112.2 118.443 111.111 118.566C110.038 118.673 109.248 118.842 108.742 119.072C107.822 119.455 107.309 120.299 107.201 121.602ZM135.853 136.598C134.565 136.598 133.921 135.862 133.921 134.39V116.45C133.921 114.947 134.534 114.196 135.761 114.196C137.11 114.196 137.785 114.947 137.785 116.45V122.844H153.333V116.45C153.333 114.947 153.977 114.196 155.265 114.196C156.553 114.196 157.197 114.947 157.197 116.45V134.39C157.197 135.862 156.553 136.598 155.265 136.598C153.977 136.598 153.333 135.862 153.333 134.39V126.708H137.785V134.39C137.785 135.862 137.141 136.598 135.853 136.598ZM184.915 136.598C183.627 136.598 182.983 135.801 182.983 134.206V119.992L167.182 136.276H163.571V116.45C163.571 114.947 164.215 114.196 165.503 114.196C166.791 114.196 167.435 114.993 167.435 116.588V130.986L183.374 114.518H186.847V134.344C186.847 135.847 186.203 136.598 184.915 136.598ZM195.104 144.648C193.847 144.648 193.218 143.866 193.218 142.302V116.404C193.218 114.932 193.877 114.196 195.196 114.196C195.886 114.196 196.361 114.411 196.622 114.84C196.898 115.269 197.036 116.005 197.036 117.048V118.428L196.346 117.508C197.312 116.45 198.531 115.691 200.003 115.231C201.49 114.756 203.2 114.518 205.132 114.518H206.466C209.41 114.518 211.748 114.786 213.481 115.323C215.214 115.86 216.456 116.749 217.207 117.991C217.958 119.218 218.334 120.881 218.334 122.982V127.812C218.334 129.913 217.958 131.584 217.207 132.826C216.456 134.053 215.221 134.934 213.504 135.471C211.802 136.008 209.502 136.276 206.604 136.276H197.082V142.302C197.082 143.866 196.423 144.648 195.104 144.648ZM197.082 132.412H206.604C208.873 132.412 210.568 132.305 211.687 132.09C212.806 131.86 213.55 131.408 213.918 130.733C214.286 130.043 214.47 129.023 214.47 127.674V123.12C214.47 121.755 214.278 120.736 213.895 120.061C213.527 119.386 212.768 118.942 211.618 118.727C210.483 118.497 208.766 118.382 206.466 118.382H205.132C202.357 118.382 200.317 118.949 199.014 120.084C197.726 121.203 197.082 122.951 197.082 125.328V132.412ZM235.304 136.276C232.36 136.276 230.014 136.015 228.266 135.494C226.534 134.957 225.284 134.076 224.517 132.849C223.766 131.607 223.39 129.928 223.39 127.812V122.982C223.39 120.866 223.766 119.195 224.517 117.968C225.284 116.726 226.534 115.844 228.266 115.323C230.014 114.786 232.36 114.518 235.304 114.518H236.638C239.582 114.518 241.921 114.786 243.653 115.323C245.386 115.86 246.628 116.749 247.379 117.991C248.131 119.218 248.506 120.881 248.506 122.982V127.812C248.506 129.913 248.131 131.584 247.379 132.826C246.628 134.053 245.386 134.934 243.653 135.471C241.921 136.008 239.582 136.276 236.638 136.276H235.304ZM235.304 132.412H236.638C238.938 132.412 240.656 132.305 241.79 132.09C242.94 131.86 243.699 131.408 244.067 130.733C244.451 130.043 244.642 129.023 244.642 127.674V123.12C244.642 121.755 244.451 120.736 244.067 120.061C243.699 119.386 242.94 118.942 241.79 118.727C240.656 118.497 238.938 118.382 236.638 118.382H235.304C232.989 118.382 231.256 118.497 230.106 118.727C228.956 118.942 228.19 119.386 227.806 120.061C227.438 120.736 227.254 121.755 227.254 123.12V127.674C227.254 129.023 227.438 130.043 227.806 130.733C228.19 131.408 228.956 131.86 230.106 132.09C231.256 132.305 232.989 132.412 235.304 132.412ZM254.268 136.276V114.518H269.77C272.346 114.518 274.362 115.078 275.819 116.197C277.276 117.301 278.004 118.842 278.004 120.82C278.004 121.817 277.828 122.683 277.475 123.419C277.122 124.155 276.601 124.753 275.911 125.213C277.306 126.348 278.004 127.919 278.004 129.928C278.004 131.247 277.674 132.381 277.015 133.332C276.356 134.283 275.413 135.011 274.186 135.517C272.959 136.023 271.487 136.276 269.77 136.276H254.268ZM258.132 132.412H269.448C272.576 132.412 274.14 131.676 274.14 130.204C274.14 129.023 273.795 128.195 273.105 127.72C272.43 127.229 271.273 126.984 269.632 126.984H258.132V132.412ZM258.132 123.12H269.632C271.503 123.12 272.729 122.959 273.312 122.637C273.895 122.3 274.186 121.617 274.186 120.59C274.186 119.118 272.607 118.382 269.448 118.382H258.132V123.12ZM285.666 136.598C285.099 136.598 284.639 136.399 284.286 136C283.949 135.601 283.78 135.095 283.78 134.482V116.312C283.78 115.668 283.964 115.154 284.332 114.771C284.7 114.388 285.191 114.196 285.804 114.196C286.356 114.196 286.801 114.395 287.138 114.794C287.476 115.177 287.644 115.683 287.644 116.312V123.442H292.06C292.367 123.442 292.735 123.212 293.164 122.752C293.609 122.292 294.238 121.456 295.05 120.245C295.679 119.34 296.392 118.428 297.189 117.508C298.002 116.588 299.037 115.798 300.294 115.139C301.567 114.48 302.978 114.15 304.526 114.15C305.247 114.15 305.822 114.319 306.251 114.656C306.696 114.993 306.918 115.469 306.918 116.082C306.918 116.726 306.711 117.209 306.297 117.531C305.899 117.853 305.308 118.014 304.526 118.014C303.729 118.014 302.947 118.321 302.18 118.934C301.429 119.547 300.509 120.628 299.42 122.177C299.144 122.56 298.876 122.921 298.615 123.258C298.37 123.58 298.132 123.879 297.902 124.155C297.688 124.416 297.473 124.653 297.258 124.868C298.454 125.389 299.535 126.11 300.501 127.03C301.483 127.95 302.142 128.885 302.479 129.836C302.847 130.787 303.208 131.507 303.56 131.998C303.913 132.489 304.235 132.734 304.526 132.734C305.247 132.734 305.822 132.91 306.251 133.263C306.696 133.616 306.918 134.083 306.918 134.666C306.918 135.954 306.121 136.598 304.526 136.598C303.453 136.598 302.525 136.437 301.743 136.115C300.961 135.793 300.34 135.302 299.88 134.643C299.42 134.014 299.045 133.401 298.753 132.803C298.462 132.205 298.125 131.599 297.741 130.986C297.358 130.357 296.798 129.721 296.062 129.077C294.79 127.896 292.597 127.306 289.484 127.306H287.644V134.528C287.644 135.157 287.468 135.655 287.115 136.023C286.763 136.406 286.28 136.598 285.666 136.598ZM316.873 145.706C315.661 145.706 314.657 145.499 313.86 145.085C313.078 144.686 312.495 144.065 312.112 143.222C311.728 142.379 311.537 141.321 311.537 140.048C311.537 139.22 311.698 138.584 312.02 138.139C312.357 137.694 312.84 137.472 313.469 137.472C314.113 137.472 314.596 137.664 314.918 138.047C315.24 138.43 315.401 138.99 315.401 139.726C315.401 140.585 315.516 141.152 315.746 141.428C315.991 141.704 316.474 141.842 317.195 141.842H331.409C332.022 141.842 332.405 141.758 332.559 141.589C332.712 141.42 332.789 140.983 332.789 140.278V134.252C330.872 135.601 328.189 136.276 324.739 136.276H323.405C320.476 136.276 318.138 136.008 316.39 135.471C314.657 134.934 313.415 134.053 312.664 132.826C311.912 131.584 311.537 129.913 311.537 127.812V116.404C311.537 114.932 312.181 114.196 313.469 114.196C314.757 114.196 315.401 114.932 315.401 116.404V127.674C315.401 129.023 315.585 130.043 315.953 130.733C316.336 131.408 317.095 131.86 318.23 132.09C319.38 132.305 321.105 132.412 323.405 132.412H324.739C327.437 132.412 329.454 131.829 330.788 130.664C332.122 129.483 332.789 127.705 332.789 125.328V116.404C332.789 114.932 333.433 114.196 334.721 114.196C336.009 114.196 336.653 114.932 336.653 116.404V139.542C336.653 141.781 336.285 143.368 335.549 144.303C334.813 145.238 333.54 145.706 331.731 145.706H316.873ZM346.069 130.204C344.781 130.204 344.137 129.56 344.137 128.272V105.502C344.137 104.214 344.781 103.57 346.069 103.57C347.357 103.57 348.001 104.214 348.001 105.502V128.272C348.001 129.56 347.357 130.204 346.069 130.204ZM345.517 136C344.291 136 343.677 135.387 343.677 134.16V133.01C343.677 131.814 344.291 131.216 345.517 131.216H346.621C347.787 131.216 348.369 131.814 348.369 133.01V134.16C348.369 135.387 347.787 136 346.621 136H345.517Z" fill="#8F00FF"/>
</svg>
