<svg width="21" height="20" viewBox="0 0 21 20" fill="none" xmlns="http://www.w3.org/2000/svg">
<path d="M7.85002 20L7.45002 16.8C7.23335 16.7167 7.02935 16.6167 6.83802 16.5C6.64669 16.3833 6.45902 16.2583 6.27502 16.125L3.30002 17.375L0.550018 12.625L3.12502 10.675C3.10835 10.5583 3.10002 10.446 3.10002 10.338V9.663C3.10002 9.55433 3.10835 9.44167 3.12502 9.325L0.550018 7.375L3.30002 2.625L6.27502 3.875C6.45835 3.74167 6.65002 3.61667 6.85002 3.5C7.05002 3.38333 7.25002 3.28333 7.45002 3.2L7.85002 0H13.35L13.75 3.2C13.9667 3.28333 14.171 3.38333 14.363 3.5C14.555 3.61667 14.7424 3.74167 14.925 3.875L17.9 2.625L20.65 7.375L18.075 9.325C18.0917 9.44167 18.1 9.55433 18.1 9.663V10.337C18.1 10.4457 18.0834 10.5583 18.05 10.675L20.625 12.625L17.875 17.375L14.925 16.125C14.7417 16.2583 14.55 16.3833 14.35 16.5C14.15 16.6167 13.95 16.7167 13.75 16.8L13.35 20H7.85002ZM10.65 13.5C11.6167 13.5 12.4417 13.1583 13.125 12.475C13.8084 11.7917 14.15 10.9667 14.15 10C14.15 9.03333 13.8084 8.20833 13.125 7.525C12.4417 6.84167 11.6167 6.5 10.65 6.5C9.66669 6.5 8.83735 6.84167 8.16202 7.525C7.48669 8.20833 7.14935 9.03333 7.15002 10C7.15002 10.9667 7.48768 11.7917 8.16302 12.475C8.83835 13.1583 9.66735 13.5 10.65 13.5Z" fill="black"/>
</svg>
